<svg xmlns="http://www.w3.org/2000/svg" width="1200" height="720" viewBox="0 0 1200 720" fill="none" role="img" aria-label="PickArena benchmark run mock">
  <title>PICKARENA · BENCHMARK RUN</title>
  <defs>
    <clipPath id="frame"><rect width="1200" height="720" rx="14"/></clipPath>
  </defs>

  <!-- window frame -->
  <rect width="1200" height="720" rx="14" fill="#0A0A0B"/>
  <rect x="0.5" y="0.5" width="1199" height="719" rx="13.5" stroke="#F2F2F3" stroke-opacity="0.14"/>

  <g clip-path="url(#frame)">
    <!-- chrome -->
    <circle cx="28" cy="24" r="5" fill="#F2F2F3" fill-opacity="0.15"/>
    <circle cx="46" cy="24" r="5" fill="#F2F2F3" fill-opacity="0.15"/>
    <circle cx="64" cy="24" r="5" fill="#F2F2F3" fill-opacity="0.15"/>
    <text x="92" y="28" font-family="Geist Mono, JetBrains Mono, monospace" font-size="11" letter-spacing="2" fill="#6E6E75">PICKARENA · BENCHMARK RUN</text>
    <g>
      <rect x="1030" y="12" width="146" height="24" rx="12" fill="#FF7A1A" fill-opacity="0.05" stroke="#FF7A1A" stroke-opacity="0.3"/>
      <circle cx="1046" cy="24" r="3" fill="#FF7A1A"/>
      <text x="1056" y="28" font-family="Geist Mono, JetBrains Mono, monospace" font-size="10" letter-spacing="1.8" fill="#FF7A1A">RUN 0042 LIVE</text>
    </g>
    <line x1="0" y1="48" x2="1200" y2="48" stroke="#F2F2F3" stroke-opacity="0.08"/>

    <!-- ===== leaderboard pane ===== -->
    <rect x="24" y="72" width="620" height="360" rx="10" fill="#0F0F11" stroke="#F2F2F3" stroke-opacity="0.08"/>
    <text x="44" y="100" font-family="Geist Mono, JetBrains Mono, monospace" font-size="10" letter-spacing="1.8" fill="#6E6E75">LEADERBOARD · AGENTIC TRACK</text>
    <text x="624" y="100" text-anchor="end" font-family="Geist Mono, JetBrains Mono, monospace" font-size="10" letter-spacing="1.8" fill="#6E6E75" fill-opacity="0.7">QUALITY · SPEED · RELIABILITY</text>
    <g font-family="Geist Mono, JetBrains Mono, monospace" font-size="12">
      <!-- row 1 (leader, ember) -->
      <text x="44" y="142" fill="#F2F2F3" fill-opacity="0.5">01</text>
      <text x="76" y="142" fill="#F2F2F3">model-a · agentic</text>
      <rect x="290" y="130" width="252" height="12" rx="3" fill="#F2F2F3" fill-opacity="0.06"/>
      <rect x="290" y="130" width="231" height="12" rx="3" fill="#FF7A1A" fill-opacity="0.85"/>
      <text x="624" y="142" text-anchor="end" fill="#F2F2F3">91.7</text>
      <!-- row 2 -->
      <text x="44" y="178" fill="#F2F2F3" fill-opacity="0.5">02</text>
      <text x="76" y="178" fill="#F2F2F3" fill-opacity="0.85">model-b · agentic</text>
      <rect x="290" y="166" width="252" height="12" rx="3" fill="#F2F2F3" fill-opacity="0.06"/>
      <rect x="290" y="166" width="208" height="12" rx="3" fill="#F2F2F3" fill-opacity="0.35"/>
      <text x="624" y="178" text-anchor="end" fill="#F2F2F3" fill-opacity="0.85">82.4</text>
      <!-- row 3 -->
      <text x="44" y="214" fill="#F2F2F3" fill-opacity="0.5">03</text>
      <text x="76" y="214" fill="#F2F2F3" fill-opacity="0.85">model-c · codegen</text>
      <rect x="290" y="202" width="252" height="12" rx="3" fill="#F2F2F3" fill-opacity="0.06"/>
      <rect x="290" y="202" width="196" height="12" rx="3" fill="#F2F2F3" fill-opacity="0.3"/>
      <text x="624" y="214" text-anchor="end" fill="#F2F2F3" fill-opacity="0.85">77.9</text>
      <!-- row 4 -->
      <text x="44" y="250" fill="#F2F2F3" fill-opacity="0.5">04</text>
      <text x="76" y="250" fill="#F2F2F3" fill-opacity="0.7">model-d · agentic</text>
      <rect x="290" y="238" width="252" height="12" rx="3" fill="#F2F2F3" fill-opacity="0.06"/>
      <rect x="290" y="238" width="164" height="12" rx="3" fill="#F2F2F3" fill-opacity="0.25"/>
      <text x="624" y="250" text-anchor="end" fill="#F2F2F3" fill-opacity="0.7">65.1</text>
      <!-- row 5 -->
      <text x="44" y="286" fill="#F2F2F3" fill-opacity="0.5">05</text>
      <text x="76" y="286" fill="#F2F2F3" fill-opacity="0.7">model-e · codegen</text>
      <rect x="290" y="274" width="252" height="12" rx="3" fill="#F2F2F3" fill-opacity="0.06"/>
      <rect x="290" y="274" width="141" height="12" rx="3" fill="#F2F2F3" fill-opacity="0.2"/>
      <text x="624" y="286" text-anchor="end" fill="#F2F2F3" fill-opacity="0.7">56.0</text>
    </g>
    <line x1="44" y1="312" x2="624" y2="312" stroke="#F2F2F3" stroke-opacity="0.08"/>
    <g font-family="Geist Mono, JetBrains Mono, monospace" font-size="10" letter-spacing="1.4" fill="#6E6E75" fill-opacity="0.7">
      <text x="44" y="344">3 TRIALS PER TASK·MODEL</text>
      <text x="44" y="368">AGGREGATED ACROSS CATEGORY DIMENSIONS</text>
      <text x="44" y="392">EXPORT · CSV · MARKDOWN · JSON</text>
    </g>

    <!-- ===== live run pane ===== -->
    <rect x="668" y="72" width="508" height="360" rx="10" fill="#0F0F11" stroke="#F2F2F3" stroke-opacity="0.08"/>
    <text x="688" y="100" font-family="Geist Mono, JetBrains Mono, monospace" font-size="10" letter-spacing="1.8" fill="#6E6E75">RUN 0042 · 5 TASKS × 3 TRIALS · BWRAP SANDBOX</text>
    <g font-family="Geist Mono, JetBrains Mono, monospace" font-size="12">
      <text x="688" y="138" fill="#F2F2F3">counter_app</text>
      <text x="1156" y="138" text-anchor="end" fill="#FF7A1A">✓ compile ✓ analyze ✓ hidden</text>
      <text x="688" y="170" fill="#F2F2F3">form_validation</text>
      <text x="1156" y="170" text-anchor="end" fill="#FF7A1A">✓ compile ✓ analyze ✓ hidden</text>
      <text x="688" y="202" fill="#F2F2F3">animated_list</text>
      <text x="1156" y="202" text-anchor="end" fill="#FF7A1A">✓ compile ✓ analyze · judge 8.7</text>
      <text x="688" y="234" fill="#F2F2F3" fill-opacity="0.85">theme_switcher</text>
      <text x="1156" y="234" text-anchor="end" fill="#F2F2F3" fill-opacity="0.6">● trial 2 of 3 running…</text>
      <text x="688" y="266" fill="#F2F2F3" fill-opacity="0.5">responsive_layout</text>
      <text x="1156" y="266" text-anchor="end" fill="#F2F2F3" fill-opacity="0.4">queued</text>
    </g>
    <line x1="688" y1="290" x2="1156" y2="290" stroke="#F2F2F3" stroke-opacity="0.08"/>
    <!-- progress -->
    <text x="688" y="320" font-family="Geist Mono, JetBrains Mono, monospace" font-size="10" letter-spacing="1.8" fill="#6E6E75">PROGRESS</text>
    <rect x="688" y="334" width="468" height="10" rx="3" fill="#F2F2F3" fill-opacity="0.06"/>
    <rect x="688" y="334" width="318" height="10" rx="3" fill="#FF7A1A" fill-opacity="0.7"/>
    <text x="688" y="372" font-family="Geist Mono, JetBrains Mono, monospace" font-size="11" fill="#F2F2F3" fill-opacity="0.7">10 / 15 trials · clean worktree · manifest saved</text>
    <text x="688" y="396" font-family="Geist Mono, JetBrains Mono, monospace" font-size="11" fill="#6E6E75">hidden verifiers never reach model prompts</text>

    <!-- ===== review queue pane ===== -->
    <rect x="24" y="456" width="520" height="216" rx="10" fill="#0F0F11" stroke="#F2F2F3" stroke-opacity="0.08"/>
    <text x="44" y="484" font-family="Geist Mono, JetBrains Mono, monospace" font-size="10" letter-spacing="1.8" fill="#6E6E75">REVIEW QUEUE · HUMAN PREFERENCE</text>
    <!-- output A (preferred) -->
    <rect x="44" y="500" width="222" height="118" rx="6" fill="#0A0A0B" stroke="#FF7A1A" stroke-opacity="0.5"/>
    <rect x="58" y="514" width="120" height="9" rx="3" fill="#F2F2F3" fill-opacity="0.16"/>
    <rect x="58" y="532" width="190" height="7" rx="2" fill="#F2F2F3" fill-opacity="0.08"/>
    <rect x="58" y="546" width="168" height="7" rx="2" fill="#F2F2F3" fill-opacity="0.08"/>
    <rect x="58" y="560" width="182" height="7" rx="2" fill="#F2F2F3" fill-opacity="0.08"/>
    <text x="58" y="604" font-family="Geist Mono, JetBrains Mono, monospace" font-size="10" letter-spacing="1.4" fill="#FF7A1A">A · PREFERRED</text>
    <!-- output B -->
    <rect x="288" y="500" width="222" height="118" rx="6" fill="#0A0A0B" stroke="#F2F2F3" stroke-opacity="0.14"/>
    <rect x="302" y="514" width="104" height="9" rx="3" fill="#F2F2F3" fill-opacity="0.16"/>
    <rect x="302" y="532" width="176" height="7" rx="2" fill="#F2F2F3" fill-opacity="0.08"/>
    <rect x="302" y="546" width="190" height="7" rx="2" fill="#F2F2F3" fill-opacity="0.08"/>
    <text x="302" y="604" font-family="Geist Mono, JetBrains Mono, monospace" font-size="10" letter-spacing="1.4" fill="#6E6E75">B</text>
    <text x="44" y="652" font-family="Geist Mono, JetBrains Mono, monospace" font-size="10" letter-spacing="1.4" fill="#6E6E75" fill-opacity="0.7">preferences fold into rankings</text>

    <!-- ===== terminal pane ===== -->
    <rect x="568" y="456" width="608" height="216" rx="10" fill="#0F0F11" stroke="#F2F2F3" stroke-opacity="0.08"/>
    <text x="588" y="484" font-family="Geist Mono, JetBrains Mono, monospace" font-size="10" letter-spacing="1.8" fill="#6E6E75">PUBLISH · STATIC LEADERBOARD</text>
    <g font-family="Geist Mono, JetBrains Mono, monospace" font-size="12.5">
      <text x="588" y="514" fill="#F2F2F3">$ bash scripts/publish-benchmark-to-web.sh .factory/0042</text>
      <text x="588" y="538" fill="#FF7A1A">✓ leaderboard.v1.json exported</text>
      <text x="588" y="560" fill="#FF7A1A">✓ release_report.v1.json · provenance</text>
      <text x="588" y="582" fill="#FF7A1A">✓ web:check · web:smoke passed</text>
      <text x="588" y="608" fill="#F2F2F3" fill-opacity="0.7">● reproducible bundle · .factory/0042/bundles/</text>
      <text x="588" y="634" fill="#F2F2F3">▌</text>
    </g>
  </g>
</svg>
